<svg width="197" height="301" viewBox="0 0 197 301" fill="none" xmlns="http://www.w3.org/2000/svg">
<rect width="197" height="301" fill="#EDEDED"/>
<path d="M102.219 173.355L110.654 131H127.064V173.355H102.219Z" stroke="#B7B7B7" stroke-width="2"/>
<path d="M95.8447 173.355L87.4097 131H70.9996V173.355H95.8447Z" stroke="#B7B7B7" stroke-width="2"/>
<path d="M99.6875 176.121V132.706C99.6875 132.706 104.01 128.759 110.212 126.879C116.414 125 122.053 125 122.053 125V167.287C111.528 167.287 106.829 171.046 99.6875 176.121Z" fill="#EDEDED" stroke="#B7B7B7" stroke-width="2"/>
<path d="M98.3652 176.121V132.706C98.3652 132.706 94.0425 128.759 87.8404 126.879C81.6383 125 76 125 76 125V167.287C86.5248 167.287 91.2234 171.046 98.3652 176.121Z" fill="#EDEDED" stroke="#B7B7B7" stroke-width="2"/>
</svg>
