<svg width="68" height="16" viewBox="0 0 68 16" fill="none" xmlns="http://www.w3.org/2000/svg">
<path d="M12.875 12V0.726562H10.1406L6.9375 8.82031H6.875L3.67188 0.726562H0.9375V12H3.03906V4.39062H3.10156L6.16406 12H7.64844L10.7109 4.39062H10.7734V12H12.875Z" fill="black"/>
<path d="M15.6328 15.1016C17.7656 15.1016 18.8203 14.3281 19.5312 12.1797L22.4141 3.625H20.0078L18.2344 10.1719H18.1875L16.4062 3.625H13.9062L16.8203 12C16.8281 12.0391 16.7422 12.3672 16.7422 12.4062C16.5859 13.0703 16.1719 13.3359 15.3438 13.3359C15.2578 13.3359 14.8438 13.3281 14.7656 13.3125V15.0781C14.8438 15.0938 15.5469 15.1016 15.6328 15.1016Z" fill="black"/>
<path d="M28.4453 12C30.8516 12 32.3438 10.7578 32.3438 8.77344C32.3438 7.28125 31.2188 6.16406 29.6875 6.04688V5.98438C30.8828 5.80469 31.8047 4.77344 31.8047 3.53906C31.8047 1.8125 30.4766 0.726562 28.3594 0.726562H23.4531V12H28.4453ZM25.8125 2.48438H27.75C28.8516 2.48438 29.4844 3 29.4844 3.90625C29.4844 4.85938 28.7656 5.41406 27.5078 5.41406H25.8125V2.48438ZM25.8125 10.2422V6.96875H27.7891C29.1797 6.96875 29.9375 7.53125 29.9375 8.58594C29.9375 9.66406 29.2031 10.2422 27.8438 10.2422H25.8125Z" fill="black"/>
<path d="M37.3359 12.1797C39.8672 12.1797 41.4844 10.5625 41.4844 7.80469C41.4844 5.08594 39.8438 3.44531 37.3359 3.44531C34.8281 3.44531 33.1875 5.09375 33.1875 7.80469C33.1875 10.5547 34.8047 12.1797 37.3359 12.1797ZM37.3359 10.4375C36.2109 10.4375 35.5 9.49219 35.5 7.8125C35.5 6.14844 36.2266 5.1875 37.3359 5.1875C38.4453 5.1875 39.1641 6.14844 39.1641 7.8125C39.1641 9.49219 38.4531 10.4375 37.3359 10.4375Z" fill="black"/>
<path d="M46.5078 12.1797C49.0391 12.1797 50.6562 10.5625 50.6562 7.80469C50.6562 5.08594 49.0156 3.44531 46.5078 3.44531C44 3.44531 42.3594 5.09375 42.3594 7.80469C42.3594 10.5547 43.9766 12.1797 46.5078 12.1797ZM46.5078 10.4375C45.3828 10.4375 44.6719 9.49219 44.6719 7.8125C44.6719 6.14844 45.3984 5.1875 46.5078 5.1875C47.6172 5.1875 48.3359 6.14844 48.3359 7.8125C48.3359 9.49219 47.625 10.4375 46.5078 10.4375Z" fill="black"/>
<path d="M54.2031 6.98438H54.1719V0.726562H51.8906V12H54.1719V9.23438L54.7656 8.59375L57.1641 12H59.7891L56.4375 7.21875L59.6328 3.625H57.0469L54.2031 6.98438Z" fill="black"/>
<path d="M60.1484 6.08594C60.1484 7.34375 60.9688 8.15625 62.5859 8.5L64.0156 8.79688C64.8359 8.98438 65.125 9.23438 65.125 9.67969C65.125 10.2266 64.5938 10.5781 63.7344 10.5781C62.8281 10.5781 62.3047 10.1875 62.1641 9.45312H59.9375C60.0859 11.1016 61.4219 12.1797 63.7344 12.1797C65.8906 12.1797 67.3984 11.0938 67.3984 9.44531C67.3984 8.21875 66.6797 7.53125 64.9297 7.16406L63.5 6.85938C62.6562 6.67969 62.3438 6.39062 62.3438 5.96094C62.3438 5.40625 62.8672 5.04688 63.6562 5.04688C64.5 5.04688 65.0078 5.50781 65.0781 6.1875H67.1797C67.1328 4.54688 65.8047 3.44531 63.6562 3.44531C61.5234 3.44531 60.1484 4.49219 60.1484 6.08594Z" fill="black"/>
</svg>
